<mxfile host="app.diagrams.net" agent="Mozilla/5.0 (Windows NT 10.0; Win64; x64) AppleWebKit/537.36 (KHTML, like Gecko) Chrome/134.0.0.0 YaBrowser/25.4.0.0 Safari/537.36" version="27.0.3">
  <diagram name="Страница — 1" id="rkrjPLExtwZoCUjt6GHJ">
    <mxGraphModel dx="1148" dy="652" grid="1" gridSize="10" guides="1" tooltips="1" connect="1" arrows="1" fold="1" page="1" pageScale="1" pageWidth="827" pageHeight="1169" math="0" shadow="0">
      <root>
        <mxCell id="0" />
        <mxCell id="1" parent="0" />
        <mxCell id="IIRJsaMtZmB93KJOGLO7-18" style="edgeStyle=orthogonalEdgeStyle;rounded=0;orthogonalLoop=1;jettySize=auto;html=1;entryX=0.5;entryY=0;entryDx=0;entryDy=0;" edge="1" parent="1" source="IIRJsaMtZmB93KJOGLO7-1" target="IIRJsaMtZmB93KJOGLO7-2">
          <mxGeometry relative="1" as="geometry" />
        </mxCell>
        <mxCell id="IIRJsaMtZmB93KJOGLO7-1" value="&lt;font face=&quot;Times New Roman&quot; style=&quot;font-size: 14px;&quot;&gt;Модуль предобработки&lt;/font&gt;" style="rounded=0;whiteSpace=wrap;html=1;" vertex="1" parent="1">
          <mxGeometry x="170" y="210" width="120" height="60" as="geometry" />
        </mxCell>
        <mxCell id="IIRJsaMtZmB93KJOGLO7-19" style="edgeStyle=orthogonalEdgeStyle;rounded=0;orthogonalLoop=1;jettySize=auto;html=1;" edge="1" parent="1" source="IIRJsaMtZmB93KJOGLO7-2" target="IIRJsaMtZmB93KJOGLO7-3">
          <mxGeometry relative="1" as="geometry" />
        </mxCell>
        <mxCell id="IIRJsaMtZmB93KJOGLO7-2" value="&lt;font face=&quot;Times New Roman&quot; style=&quot;font-size: 14px;&quot;&gt;Модуль обработки&lt;/font&gt;" style="rounded=0;whiteSpace=wrap;html=1;" vertex="1" parent="1">
          <mxGeometry x="170" y="290" width="120" height="60" as="geometry" />
        </mxCell>
        <mxCell id="IIRJsaMtZmB93KJOGLO7-17" style="edgeStyle=orthogonalEdgeStyle;rounded=0;orthogonalLoop=1;jettySize=auto;html=1;entryX=0;entryY=0.5;entryDx=0;entryDy=0;" edge="1" parent="1" source="IIRJsaMtZmB93KJOGLO7-3" target="IIRJsaMtZmB93KJOGLO7-5">
          <mxGeometry relative="1" as="geometry" />
        </mxCell>
        <mxCell id="IIRJsaMtZmB93KJOGLO7-3" value="&lt;font face=&quot;Times New Roman&quot; style=&quot;font-size: 14px;&quot;&gt;Модуль формирования заключения&lt;/font&gt;" style="rounded=0;whiteSpace=wrap;html=1;" vertex="1" parent="1">
          <mxGeometry x="170" y="370" width="120" height="60" as="geometry" />
        </mxCell>
        <mxCell id="IIRJsaMtZmB93KJOGLO7-16" style="edgeStyle=orthogonalEdgeStyle;rounded=0;orthogonalLoop=1;jettySize=auto;html=1;entryX=1;entryY=0.5;entryDx=0;entryDy=0;" edge="1" parent="1" source="IIRJsaMtZmB93KJOGLO7-4" target="IIRJsaMtZmB93KJOGLO7-1">
          <mxGeometry relative="1" as="geometry" />
        </mxCell>
        <mxCell id="IIRJsaMtZmB93KJOGLO7-4" value="&lt;font face=&quot;Times New Roman&quot;&gt;&lt;span style=&quot;font-size: 14px;&quot;&gt;Загрузка изображения&lt;/span&gt;&lt;/font&gt;" style="rounded=0;whiteSpace=wrap;html=1;" vertex="1" parent="1">
          <mxGeometry x="432.5" y="240" width="120" height="60" as="geometry" />
        </mxCell>
        <mxCell id="IIRJsaMtZmB93KJOGLO7-5" value="&lt;font face=&quot;Times New Roman&quot;&gt;&lt;span style=&quot;font-size: 14px;&quot;&gt;Результат обработки&lt;/span&gt;&lt;/font&gt;" style="rounded=0;whiteSpace=wrap;html=1;" vertex="1" parent="1">
          <mxGeometry x="432.5" y="320" width="120" height="60" as="geometry" />
        </mxCell>
        <mxCell id="IIRJsaMtZmB93KJOGLO7-7" value="" style="endArrow=none;dashed=1;html=1;rounded=0;" edge="1" parent="1">
          <mxGeometry width="50" height="50" relative="1" as="geometry">
            <mxPoint x="150" y="450" as="sourcePoint" />
            <mxPoint x="150" y="190" as="targetPoint" />
          </mxGeometry>
        </mxCell>
        <mxCell id="IIRJsaMtZmB93KJOGLO7-8" value="" style="endArrow=none;dashed=1;html=1;rounded=0;" edge="1" parent="1">
          <mxGeometry width="50" height="50" relative="1" as="geometry">
            <mxPoint x="150" y="450" as="sourcePoint" />
            <mxPoint x="310" y="450" as="targetPoint" />
          </mxGeometry>
        </mxCell>
        <mxCell id="IIRJsaMtZmB93KJOGLO7-10" value="" style="endArrow=none;dashed=1;html=1;rounded=0;" edge="1" parent="1">
          <mxGeometry width="50" height="50" relative="1" as="geometry">
            <mxPoint x="310" y="450" as="sourcePoint" />
            <mxPoint x="310" y="190" as="targetPoint" />
          </mxGeometry>
        </mxCell>
        <mxCell id="IIRJsaMtZmB93KJOGLO7-11" value="" style="endArrow=none;dashed=1;html=1;rounded=0;" edge="1" parent="1">
          <mxGeometry width="50" height="50" relative="1" as="geometry">
            <mxPoint x="150" y="190" as="sourcePoint" />
            <mxPoint x="310" y="190" as="targetPoint" />
          </mxGeometry>
        </mxCell>
        <mxCell id="IIRJsaMtZmB93KJOGLO7-12" value="" style="endArrow=none;dashed=1;html=1;rounded=0;" edge="1" parent="1">
          <mxGeometry width="50" height="50" relative="1" as="geometry">
            <mxPoint x="412.5" y="400" as="sourcePoint" />
            <mxPoint x="412.5" y="220" as="targetPoint" />
          </mxGeometry>
        </mxCell>
        <mxCell id="IIRJsaMtZmB93KJOGLO7-13" value="" style="endArrow=none;dashed=1;html=1;rounded=0;" edge="1" parent="1">
          <mxGeometry width="50" height="50" relative="1" as="geometry">
            <mxPoint x="572.5" y="220" as="sourcePoint" />
            <mxPoint x="412.5" y="220" as="targetPoint" />
          </mxGeometry>
        </mxCell>
        <mxCell id="IIRJsaMtZmB93KJOGLO7-14" value="" style="endArrow=none;dashed=1;html=1;rounded=0;" edge="1" parent="1">
          <mxGeometry width="50" height="50" relative="1" as="geometry">
            <mxPoint x="572.5" y="400" as="sourcePoint" />
            <mxPoint x="572.5" y="220" as="targetPoint" />
          </mxGeometry>
        </mxCell>
        <mxCell id="IIRJsaMtZmB93KJOGLO7-15" value="" style="endArrow=none;dashed=1;html=1;rounded=0;" edge="1" parent="1">
          <mxGeometry width="50" height="50" relative="1" as="geometry">
            <mxPoint x="572.5" y="400" as="sourcePoint" />
            <mxPoint x="412.5" y="399.71000000000004" as="targetPoint" />
          </mxGeometry>
        </mxCell>
        <mxCell id="IIRJsaMtZmB93KJOGLO7-20" value="&lt;font face=&quot;Times New Roman&quot; style=&quot;font-size: 14px;&quot;&gt;Пользовательский интерфейс&lt;/font&gt;" style="text;html=1;align=center;verticalAlign=middle;whiteSpace=wrap;rounded=0;" vertex="1" parent="1">
          <mxGeometry x="400" y="190" width="185" height="30" as="geometry" />
        </mxCell>
        <mxCell id="IIRJsaMtZmB93KJOGLO7-21" value="&lt;font face=&quot;Times New Roman&quot;&gt;&lt;span style=&quot;font-size: 14px;&quot;&gt;Сервер&lt;/span&gt;&lt;/font&gt;" style="text;html=1;align=center;verticalAlign=middle;whiteSpace=wrap;rounded=0;" vertex="1" parent="1">
          <mxGeometry x="137.5" y="160" width="185" height="30" as="geometry" />
        </mxCell>
        <mxCell id="IIRJsaMtZmB93KJOGLO7-23" value="&lt;font face=&quot;Times New Roman&quot;&gt;&lt;span style=&quot;font-size: 14px;&quot;&gt;WebSockets&lt;/span&gt;&lt;/font&gt;" style="text;html=1;align=center;verticalAlign=middle;whiteSpace=wrap;rounded=0;" vertex="1" parent="1">
          <mxGeometry x="270" y="300" width="185" height="30" as="geometry" />
        </mxCell>
      </root>
    </mxGraphModel>
  </diagram>
</mxfile>
